<svg width="78" height="38" viewBox="0 0 78 38" fill="none" xmlns="http://www.w3.org/2000/svg">
<rect x="18" width="8" height="28" rx="4" fill="url(#paint0_linear_1271_8)"/>
<rect x="27" y="14" width="8" height="20" rx="4" fill="url(#paint1_linear_1271_8)"/>
<rect x="9" y="7" width="8" height="31" rx="4" fill="url(#paint2_linear_1271_8)"/>
<rect y="15" width="7.5" height="17" rx="3.75" fill="url(#paint3_linear_1271_8)"/>
<path d="M42.324 11.144C41.804 11.144 41.288 11.052 40.776 10.868C40.272 10.684 39.816 10.396 39.408 10.004L40.404 8.78C40.684 9.012 41 9.192 41.352 9.32C41.704 9.448 42.044 9.512 42.372 9.512C42.716 9.512 42.968 9.452 43.128 9.332C43.296 9.212 43.38 9.048 43.38 8.84C43.38 8.688 43.332 8.568 43.236 8.48C43.148 8.392 43.024 8.312 42.864 8.24C42.704 8.16 42.508 8.076 42.276 7.988L41.28 7.58C41.008 7.46 40.748 7.304 40.5 7.112C40.26 6.92 40.068 6.684 39.924 6.404C39.78 6.124 39.708 5.796 39.708 5.42C39.708 4.98 39.828 4.58 40.068 4.22C40.308 3.86 40.64 3.576 41.064 3.368C41.496 3.152 41.988 3.044 42.54 3.044C43.012 3.044 43.468 3.128 43.908 3.296C44.356 3.464 44.752 3.708 45.096 4.028L44.1 5.252C43.836 5.068 43.572 4.928 43.308 4.832C43.052 4.728 42.796 4.676 42.54 4.676C42.26 4.676 42.036 4.732 41.868 4.844C41.708 4.948 41.628 5.1 41.628 5.3C41.628 5.444 41.676 5.564 41.772 5.66C41.868 5.756 42.004 5.844 42.18 5.924C42.364 5.996 42.572 6.076 42.804 6.164L43.776 6.56C44.104 6.688 44.38 6.848 44.604 7.04C44.828 7.232 45 7.464 45.12 7.736C45.248 8.008 45.312 8.324 45.312 8.684C45.312 9.124 45.196 9.532 44.964 9.908C44.732 10.276 44.392 10.576 43.944 10.808C43.496 11.032 42.956 11.144 42.324 11.144ZM49.1711 11.144C48.6591 11.144 48.1791 11.02 47.7311 10.772C47.2911 10.524 46.9311 10.168 46.6511 9.704C46.3711 9.24 46.2311 8.676 46.2311 8.012C46.2311 7.348 46.3711 6.784 46.6511 6.32C46.9311 5.856 47.2911 5.5 47.7311 5.252C48.1791 5.004 48.6591 4.88 49.1711 4.88C49.6751 4.88 50.1471 5.004 50.5871 5.252C51.0351 5.5 51.3991 5.856 51.6791 6.32C51.9591 6.784 52.0991 7.348 52.0991 8.012C52.0991 8.676 51.9591 9.24 51.6791 9.704C51.3991 10.168 51.0351 10.524 50.5871 10.772C50.1471 11.02 49.6751 11.144 49.1711 11.144ZM49.1711 9.62C49.3951 9.62 49.5791 9.556 49.7231 9.428C49.8751 9.292 49.9831 9.104 50.0471 8.864C50.1191 8.624 50.1551 8.34 50.1551 8.012C50.1551 7.684 50.1191 7.4 50.0471 7.16C49.9831 6.92 49.8751 6.736 49.7231 6.608C49.5791 6.472 49.3951 6.404 49.1711 6.404C48.9391 6.404 48.7471 6.472 48.5951 6.608C48.4511 6.736 48.3431 6.92 48.2711 7.16C48.2071 7.4 48.1751 7.684 48.1751 8.012C48.1751 8.34 48.2071 8.624 48.2711 8.864C48.3431 9.104 48.4511 9.292 48.5951 9.428C48.7471 9.556 48.9391 9.62 49.1711 9.62ZM55.1668 11.144C54.5188 11.144 54.0468 10.928 53.7508 10.496C53.4548 10.056 53.3068 9.464 53.3068 8.72V5.024H55.2028V8.48C55.2028 8.888 55.2588 9.168 55.3708 9.32C55.4828 9.464 55.6548 9.536 55.8868 9.536C56.0948 9.536 56.2708 9.492 56.4148 9.404C56.5588 9.308 56.7068 9.152 56.8588 8.936V5.024H58.7548V11H57.2068L57.0748 10.184H57.0268C56.7868 10.48 56.5188 10.716 56.2228 10.892C55.9268 11.06 55.5748 11.144 55.1668 11.144ZM60.3657 11V5.024H61.9017L62.0457 5.768H62.0817C62.3297 5.528 62.6057 5.32 62.9097 5.144C63.2217 4.968 63.5817 4.88 63.9897 4.88C64.6457 4.88 65.1177 5.1 65.4057 5.54C65.7017 5.972 65.8497 6.56 65.8497 7.304V11H63.9537V7.544C63.9537 7.136 63.8977 6.86 63.7857 6.716C63.6817 6.564 63.5137 6.488 63.2817 6.488C63.0737 6.488 62.8937 6.536 62.7417 6.632C62.5977 6.72 62.4377 6.848 62.2617 7.016V11H60.3657ZM69.5478 11.144C68.8118 11.144 68.2198 10.864 67.7718 10.304C67.3318 9.744 67.1118 8.98 67.1118 8.012C67.1118 7.364 67.2278 6.808 67.4598 6.344C67.6998 5.872 68.0078 5.512 68.3838 5.264C68.7598 5.008 69.1558 4.88 69.5718 4.88C69.8998 4.88 70.1718 4.936 70.3878 5.048C70.6038 5.16 70.8078 5.308 70.9998 5.492L70.9278 4.604V2.612H72.8238V11H71.2878L71.1438 10.424H71.1078C70.8998 10.632 70.6558 10.804 70.3758 10.94C70.1038 11.076 69.8278 11.144 69.5478 11.144ZM70.0518 9.596C70.2278 9.596 70.3878 9.56 70.5318 9.488C70.6758 9.416 70.8078 9.288 70.9278 9.104V6.764C70.7918 6.636 70.6438 6.548 70.4838 6.5C70.3238 6.452 70.1678 6.428 70.0158 6.428C69.8478 6.428 69.6878 6.484 69.5358 6.596C69.3918 6.7 69.2718 6.868 69.1758 7.1C69.0878 7.332 69.0438 7.628 69.0438 7.988C69.0438 8.556 69.1318 8.968 69.3078 9.224C69.4918 9.472 69.7398 9.596 70.0518 9.596ZM43.26 22.144C42.588 22.144 41.968 21.996 41.4 21.7C40.84 21.404 40.388 20.96 40.044 20.368C39.708 19.768 39.54 19.028 39.54 18.148C39.54 17.492 39.64 16.912 39.84 16.408C40.04 15.896 40.312 15.464 40.656 15.112C41.008 14.76 41.408 14.496 41.856 14.32C42.304 14.136 42.776 14.044 43.272 14.044C43.784 14.044 44.24 14.144 44.64 14.344C45.048 14.544 45.384 14.784 45.648 15.064L44.652 16.216C44.46 16.04 44.256 15.908 44.04 15.82C43.824 15.724 43.58 15.676 43.308 15.676C42.98 15.676 42.676 15.776 42.396 15.976C42.124 16.168 41.904 16.444 41.736 16.804C41.568 17.164 41.484 17.588 41.484 18.076C41.484 18.596 41.564 19.036 41.724 19.396C41.884 19.756 42.108 20.032 42.396 20.224C42.684 20.416 43.016 20.512 43.392 20.512C43.688 20.512 43.952 20.452 44.184 20.332C44.416 20.212 44.616 20.068 44.784 19.9L45.744 21.016C45.4 21.4 45.02 21.684 44.604 21.868C44.196 22.052 43.748 22.144 43.26 22.144ZM46.8718 22V13.612H48.7678V15.628L48.6718 16.684C48.8958 16.484 49.1518 16.3 49.4398 16.132C49.7358 15.964 50.0878 15.88 50.4958 15.88C51.1518 15.88 51.6238 16.1 51.9118 16.54C52.2078 16.972 52.3558 17.56 52.3558 18.304V22H50.4598V18.544C50.4598 18.136 50.4038 17.86 50.2918 17.716C50.1878 17.564 50.0198 17.488 49.7878 17.488C49.5798 17.488 49.3998 17.536 49.2478 17.632C49.1038 17.72 48.9438 17.848 48.7678 18.016V22H46.8718ZM56.6179 22.144C56.0499 22.144 55.5339 22.02 55.0699 21.772C54.6059 21.524 54.2379 21.168 53.9659 20.704C53.7019 20.24 53.5699 19.676 53.5699 19.012C53.5699 18.364 53.7059 17.808 53.9779 17.344C54.2499 16.88 54.6019 16.52 55.0339 16.264C55.4739 16.008 55.9339 15.88 56.4139 15.88C56.9899 15.88 57.4659 16.008 57.8419 16.264C58.2259 16.52 58.5099 16.868 58.6939 17.308C58.8859 17.74 58.9819 18.224 58.9819 18.76C58.9819 18.928 58.9739 19.088 58.9579 19.24C58.9419 19.392 58.9259 19.504 58.9099 19.576H55.0579L55.0339 18.328H57.3739C57.3739 18.04 57.3019 17.8 57.1579 17.608C57.0219 17.416 56.7859 17.32 56.4499 17.32C56.2659 17.32 56.0819 17.372 55.8979 17.476C55.7219 17.58 55.5779 17.756 55.4659 18.004C55.3539 18.252 55.3059 18.588 55.3219 19.012C55.3299 19.46 55.4139 19.808 55.5739 20.056C55.7339 20.304 55.9299 20.476 56.1619 20.572C56.3939 20.66 56.6339 20.704 56.8819 20.704C57.0979 20.704 57.3099 20.672 57.5179 20.608C57.7339 20.544 57.9499 20.452 58.1659 20.332L58.7659 21.46C58.4539 21.676 58.1059 21.844 57.7219 21.964C57.3379 22.084 56.9699 22.144 56.6179 22.144ZM62.9717 22.144C62.3957 22.144 61.8797 22.02 61.4237 21.772C60.9677 21.524 60.6077 21.168 60.3437 20.704C60.0797 20.24 59.9477 19.676 59.9477 19.012C59.9477 18.348 60.0957 17.784 60.3917 17.32C60.6877 16.856 61.0717 16.5 61.5437 16.252C62.0237 16.004 62.5437 15.88 63.1037 15.88C63.4637 15.88 63.7917 15.94 64.0877 16.06C64.3837 16.172 64.6357 16.324 64.8437 16.516L63.9557 17.68C63.8517 17.6 63.7397 17.536 63.6197 17.488C63.5077 17.432 63.3717 17.404 63.2117 17.404C62.9477 17.404 62.7157 17.472 62.5157 17.608C62.3157 17.736 62.1597 17.92 62.0477 18.16C61.9437 18.4 61.8917 18.684 61.8917 19.012C61.8917 19.34 61.9477 19.624 62.0597 19.864C62.1717 20.104 62.3237 20.292 62.5157 20.428C62.7077 20.556 62.9237 20.62 63.1637 20.62C63.3477 20.62 63.5237 20.588 63.6917 20.524C63.8597 20.452 64.0197 20.36 64.1717 20.248L64.9037 21.412C64.6557 21.644 64.3597 21.824 64.0157 21.952C63.6797 22.08 63.3317 22.144 62.9717 22.144ZM66.0287 22V13.612H67.9007V18.244H67.9487L69.6887 16.024H71.7647L69.6767 18.52L71.9087 22H69.8567L68.5727 19.756L67.9007 20.524V22H66.0287ZM43.26 33.144C42.588 33.144 41.968 32.996 41.4 32.7C40.84 32.404 40.388 31.96 40.044 31.368C39.708 30.768 39.54 30.028 39.54 29.148C39.54 28.492 39.64 27.912 39.84 27.408C40.04 26.896 40.312 26.464 40.656 26.112C41.008 25.76 41.408 25.496 41.856 25.32C42.304 25.136 42.776 25.044 43.272 25.044C43.784 25.044 44.24 25.144 44.64 25.344C45.048 25.544 45.384 25.784 45.648 26.064L44.652 27.216C44.46 27.04 44.256 26.908 44.04 26.82C43.824 26.724 43.58 26.676 43.308 26.676C42.98 26.676 42.676 26.776 42.396 26.976C42.124 27.168 41.904 27.444 41.736 27.804C41.568 28.164 41.484 28.588 41.484 29.076C41.484 29.596 41.564 30.036 41.724 30.396C41.884 30.756 42.108 31.032 42.396 31.224C42.684 31.416 43.016 31.512 43.392 31.512C43.688 31.512 43.952 31.452 44.184 31.332C44.416 31.212 44.616 31.068 44.784 30.9L45.744 32.016C45.4 32.4 45.02 32.684 44.604 32.868C44.196 33.052 43.748 33.144 43.26 33.144ZM48.3958 33.144C48.0278 33.144 47.7078 33.064 47.4358 32.904C47.1718 32.736 46.9678 32.516 46.8238 32.244C46.6798 31.964 46.6078 31.66 46.6078 31.332C46.6078 30.7 46.8678 30.208 47.3878 29.856C47.9158 29.504 48.7598 29.268 49.9198 29.148C49.9118 28.98 49.8718 28.84 49.7998 28.728C49.7358 28.616 49.6398 28.532 49.5118 28.476C49.3838 28.412 49.2238 28.38 49.0318 28.38C48.7918 28.38 48.5478 28.424 48.2998 28.512C48.0518 28.6 47.7798 28.724 47.4838 28.884L46.8118 27.672C47.0758 27.512 47.3478 27.372 47.6278 27.252C47.9078 27.132 48.1918 27.04 48.4798 26.976C48.7758 26.912 49.0798 26.88 49.3918 26.88C49.9118 26.88 50.3518 26.98 50.7118 27.18C51.0718 27.372 51.3438 27.672 51.5278 28.08C51.7198 28.48 51.8158 28.996 51.8158 29.628V33H50.2798L50.1358 32.4H50.0998C49.8518 32.624 49.5878 32.804 49.3078 32.94C49.0358 33.076 48.7318 33.144 48.3958 33.144ZM49.0438 31.68C49.2278 31.68 49.3878 31.64 49.5238 31.56C49.6598 31.472 49.7918 31.36 49.9198 31.224V30.276C49.5438 30.332 49.2438 30.404 49.0198 30.492C48.8038 30.58 48.6478 30.684 48.5518 30.804C48.4638 30.916 48.4198 31.04 48.4198 31.176C48.4198 31.344 48.4758 31.472 48.5878 31.56C48.6998 31.64 48.8518 31.68 49.0438 31.68ZM53.3668 35.172V27.024H54.9028L55.0468 27.6H55.0828C55.3148 27.384 55.5748 27.212 55.8628 27.084C56.1588 26.948 56.4548 26.88 56.7508 26.88C57.2308 26.88 57.6428 27.008 57.9868 27.264C58.3388 27.512 58.6068 27.864 58.7908 28.32C58.9828 28.768 59.0788 29.3 59.0788 29.916C59.0788 30.604 58.9588 31.188 58.7188 31.668C58.4788 32.148 58.1668 32.516 57.7828 32.772C57.4068 33.02 57.0068 33.144 56.5828 33.144C56.3268 33.144 56.0828 33.092 55.8508 32.988C55.6188 32.876 55.3988 32.724 55.1908 32.532L55.2628 33.456V35.172H53.3668ZM56.1268 31.596C56.3108 31.596 56.4788 31.544 56.6308 31.44C56.7908 31.328 56.9148 31.152 57.0028 30.912C57.0988 30.664 57.1468 30.34 57.1468 29.94C57.1468 29.596 57.1108 29.312 57.0388 29.088C56.9668 28.864 56.8588 28.7 56.7148 28.596C56.5788 28.484 56.4028 28.428 56.1868 28.428C56.0188 28.428 55.8628 28.468 55.7188 28.548C55.5748 28.62 55.4228 28.744 55.2628 28.92V31.26C55.3988 31.38 55.5428 31.468 55.6948 31.524C55.8468 31.572 55.9908 31.596 56.1268 31.596ZM60.4009 33V27.024H62.2969V33H60.4009ZM61.3489 26.208C61.0369 26.208 60.7809 26.12 60.5809 25.944C60.3889 25.768 60.2929 25.532 60.2929 25.236C60.2929 24.948 60.3889 24.716 60.5809 24.54C60.7809 24.356 61.0369 24.264 61.3489 24.264C61.6609 24.264 61.9129 24.356 62.1049 24.54C62.3049 24.716 62.4049 24.948 62.4049 25.236C62.4049 25.532 62.3049 25.768 62.1049 25.944C61.9129 26.12 61.6609 26.208 61.3489 26.208ZM66.2599 33.144C65.5079 33.144 64.9679 32.924 64.6399 32.484C64.3119 32.044 64.1479 31.472 64.1479 30.768V28.512H63.3439V27.096L64.2559 27.024L64.4719 25.212H66.0319V27.024H67.4359V28.512H66.0319V30.744C66.0319 31.072 66.1039 31.308 66.2479 31.452C66.3919 31.588 66.5719 31.656 66.7879 31.656C66.8839 31.656 66.9799 31.652 67.0759 31.644C67.1719 31.628 67.2599 31.604 67.3399 31.572L67.6279 32.892C67.4759 32.956 67.2839 33.012 67.0519 33.06C66.8199 33.116 66.5559 33.144 66.2599 33.144ZM69.9696 33.144C69.6016 33.144 69.2816 33.064 69.0096 32.904C68.7456 32.736 68.5416 32.516 68.3976 32.244C68.2536 31.964 68.1816 31.66 68.1816 31.332C68.1816 30.7 68.4416 30.208 68.9616 29.856C69.4896 29.504 70.3336 29.268 71.4936 29.148C71.4856 28.98 71.4456 28.84 71.3736 28.728C71.3096 28.616 71.2136 28.532 71.0856 28.476C70.9576 28.412 70.7976 28.38 70.6056 28.38C70.3656 28.38 70.1216 28.424 69.8736 28.512C69.6256 28.6 69.3536 28.724 69.0576 28.884L68.3856 27.672C68.6496 27.512 68.9216 27.372 69.2016 27.252C69.4816 27.132 69.7656 27.04 70.0536 26.976C70.3496 26.912 70.6536 26.88 70.9656 26.88C71.4856 26.88 71.9256 26.98 72.2856 27.18C72.6456 27.372 72.9176 27.672 73.1016 28.08C73.2936 28.48 73.3896 28.996 73.3896 29.628V33H71.8536L71.7096 32.4H71.6736C71.4256 32.624 71.1616 32.804 70.8816 32.94C70.6096 33.076 70.3056 33.144 69.9696 33.144ZM70.6176 31.68C70.8016 31.68 70.9616 31.64 71.0976 31.56C71.2336 31.472 71.3656 31.36 71.4936 31.224V30.276C71.1176 30.332 70.8176 30.404 70.5936 30.492C70.3776 30.58 70.2216 30.684 70.1256 30.804C70.0376 30.916 69.9936 31.04 69.9936 31.176C69.9936 31.344 70.0496 31.472 70.1616 31.56C70.2736 31.64 70.4256 31.68 70.6176 31.68ZM76.6566 33.144C76.2246 33.144 75.8846 33.056 75.6366 32.88C75.3886 32.704 75.2086 32.46 75.0966 32.148C74.9926 31.828 74.9406 31.456 74.9406 31.032V24.612H76.8366V31.104C76.8366 31.296 76.8726 31.432 76.9446 31.512C77.0166 31.584 77.0886 31.62 77.1606 31.62C77.2006 31.62 77.2326 31.62 77.2566 31.62C77.2886 31.612 77.3286 31.604 77.3766 31.596L77.5926 32.976C77.4966 33.024 77.3686 33.064 77.2086 33.096C77.0566 33.128 76.8726 33.144 76.6566 33.144Z" fill="#060606"/>
<defs>
<linearGradient id="paint0_linear_1271_8" x1="22" y1="0" x2="22" y2="28" gradientUnits="userSpaceOnUse">
<stop stop-color="#EF2A5F"/>
<stop offset="0.435" stop-color="#F58357"/>
<stop offset="0.95" stop-color="#FFBB37"/>
</linearGradient>
<linearGradient id="paint1_linear_1271_8" x1="31" y1="14" x2="31" y2="34" gradientUnits="userSpaceOnUse">
<stop stop-color="#EF2A5F"/>
<stop offset="0.435" stop-color="#F58357"/>
<stop offset="0.95" stop-color="#FFBB37"/>
</linearGradient>
<linearGradient id="paint2_linear_1271_8" x1="13" y1="7" x2="13" y2="38" gradientUnits="userSpaceOnUse">
<stop stop-color="#EF2A5F"/>
<stop offset="0.435" stop-color="#F58357"/>
<stop offset="0.95" stop-color="#FFBB37"/>
</linearGradient>
<linearGradient id="paint3_linear_1271_8" x1="3.75" y1="15" x2="3.75" y2="32" gradientUnits="userSpaceOnUse">
<stop stop-color="#EF2A5F"/>
<stop offset="0.435" stop-color="#F58357"/>
<stop offset="0.95" stop-color="#FFBB37"/>
</linearGradient>
</defs>
</svg>
