<svg width="111" height="58" viewBox="0 0 111 58" fill="none" xmlns="http://www.w3.org/2000/svg">
<rect x="28.1953" y="0.859375" width="12" height="42" rx="6" fill="url(#paint0_linear_444_28)"/>
<rect x="42.1953" y="21.8594" width="11" height="32" rx="5.5" fill="url(#paint1_linear_444_28)"/>
<rect x="0.195312" y="21.8594" width="12" height="30" rx="6" fill="url(#paint2_linear_444_28)"/>
<rect x="14.1953" y="10.8594" width="12.129" height="47" rx="6.06452" fill="url(#paint3_linear_444_28)"/>
<path d="M67.5675 11.6776C67.5071 11.0703 67.239 10.5874 66.7631 10.2287C66.2873 9.87003 65.6889 9.6907 64.968 9.6907C64.4602 9.6907 64.0128 9.7777 63.6257 9.9517C63.2422 10.1257 62.9403 10.3672 62.7202 10.6761C62.5036 10.9815 62.3952 11.3295 62.3952 11.7202C62.3952 12.0078 62.4574 12.2599 62.5817 12.4766C62.706 12.6932 62.8729 12.8796 63.0824 13.0359C63.2955 13.1886 63.5298 13.32 63.7855 13.43C64.0447 13.5401 64.3058 13.6325 64.5685 13.707L65.7191 14.0373C66.0671 14.1332 66.4151 14.2557 66.7631 14.4048C67.1112 14.554 67.429 14.7422 67.7166 14.9695C68.0078 15.1932 68.2404 15.4684 68.4144 15.7951C68.592 16.1183 68.6808 16.5071 68.6808 16.9616C68.6808 17.544 68.5298 18.0678 68.228 18.533C67.9261 18.9982 67.4929 19.3675 66.9283 19.641C66.3636 19.9109 65.6871 20.0458 64.8988 20.0458C64.1566 20.0458 63.5121 19.9233 62.9652 19.6783C62.4183 19.4297 61.9886 19.087 61.6761 18.6502C61.3636 18.2134 61.1879 17.7074 61.1488 17.1321H62.1715C62.207 17.5618 62.3491 17.9258 62.5977 18.2241C62.8462 18.5224 63.1694 18.7496 63.5671 18.9059C63.9648 19.0586 64.4087 19.1349 64.8988 19.1349C65.4421 19.1349 65.9251 19.0444 66.3477 18.8633C66.7738 18.6786 67.1076 18.4229 67.3491 18.0962C67.5941 17.766 67.7166 17.3825 67.7166 16.9457C67.7166 16.5763 67.6207 16.2674 67.429 16.0188C67.2372 15.7667 66.9691 15.5554 66.6246 15.3849C66.2837 15.2145 65.8878 15.0636 65.4368 14.9322L64.1317 14.5487C63.2759 14.293 62.6119 13.9396 62.1396 13.4886C61.6673 13.0376 61.4311 12.4624 61.4311 11.7628C61.4311 11.1768 61.5874 10.6619 61.8999 10.218C62.2159 9.7706 62.642 9.42259 63.1783 9.17401C63.718 8.92187 64.3235 8.79581 64.9947 8.79581C65.6729 8.79581 66.2731 8.9201 66.7951 9.16868C67.3171 9.41726 67.7308 9.75994 68.0362 10.1967C68.3452 10.63 68.5103 11.1236 68.5316 11.6776H67.5675ZM74.2107 20.0298C73.504 20.0298 72.879 19.8505 72.3357 19.4918C71.796 19.1332 71.3734 18.6378 71.068 18.0057C70.7626 17.37 70.6099 16.6367 70.6099 15.8058C70.6099 14.9677 70.7626 14.2308 71.068 13.5952C71.3734 12.956 71.796 12.4588 72.3357 12.1037C72.879 11.745 73.504 11.5657 74.2107 11.5657C74.9174 11.5657 75.5406 11.745 76.0804 12.1037C76.6202 12.4624 77.0428 12.9595 77.3482 13.5952C77.6571 14.2308 77.8116 14.9677 77.8116 15.8058C77.8116 16.6367 77.6589 17.37 77.3535 18.0057C77.0481 18.6378 76.6237 19.1332 76.0804 19.4918C75.5406 19.8505 74.9174 20.0298 74.2107 20.0298ZM74.2107 19.1616C74.7789 19.1616 75.2601 19.0089 75.6543 18.7035C76.0484 18.3981 76.3467 17.9915 76.5491 17.4837C76.7551 16.9759 76.8581 16.4165 76.8581 15.8058C76.8581 15.195 76.7551 14.6339 76.5491 14.1225C76.3467 13.6112 76.0484 13.201 75.6543 12.892C75.2601 12.5831 74.7789 12.4286 74.2107 12.4286C73.6461 12.4286 73.1649 12.5831 72.7672 12.892C72.373 13.201 72.0729 13.6112 71.867 14.1225C71.6646 14.6339 71.5634 15.195 71.5634 15.8058C71.5634 16.4165 71.6646 16.9759 71.867 17.4837C72.0729 17.9915 72.373 18.3981 72.7672 18.7035C73.1614 19.0089 73.6425 19.1616 74.2107 19.1616ZM85.2418 16.7326V11.6776H86.19V19.8594H85.2418V18.5011H85.1673C84.9755 18.9201 84.6719 19.2699 84.2564 19.5504C83.8409 19.8274 83.3331 19.9659 82.733 19.9659C82.211 19.9659 81.7475 19.8523 81.3427 19.625C80.9379 19.3942 80.62 19.0568 80.3892 18.6129C80.1584 18.169 80.043 17.6239 80.043 16.9776V11.6776H80.9911V16.919C80.9911 17.5582 81.1793 18.0732 81.5558 18.4638C81.9322 18.8509 82.4151 19.0444 83.0046 19.0444C83.374 19.0444 83.7291 18.9556 84.07 18.7781C84.4109 18.6005 84.6914 18.3413 84.9116 18.0004C85.1318 17.6559 85.2418 17.2333 85.2418 16.7326ZM89.7984 14.7457V19.8594H88.8502V11.6776H89.7717V12.9613H89.857C90.0487 12.5423 90.347 12.2067 90.7518 11.9545C91.1602 11.6989 91.6645 11.571 92.2646 11.571C92.8151 11.571 93.298 11.6864 93.7135 11.9173C94.1325 12.1445 94.4575 12.4801 94.6883 12.924C94.9227 13.3679 95.0398 13.913 95.0398 14.5593V19.8594H94.0917V14.6179C94.0917 13.9467 93.9035 13.4158 93.5271 13.0252C93.1542 12.6346 92.6535 12.4393 92.0249 12.4393C91.5952 12.4393 91.2135 12.5316 90.8797 12.7163C90.5459 12.9009 90.2813 13.1673 90.086 13.5153C89.8942 13.8597 89.7984 14.2699 89.7984 14.7457ZM100.632 20.0298C99.9612 20.0298 99.3735 19.8523 98.8693 19.4972C98.365 19.142 97.9708 18.6467 97.6867 18.011C97.4062 17.3754 97.2659 16.6349 97.2659 15.7898C97.2659 14.9482 97.4062 14.2113 97.6867 13.5792C97.9708 12.9435 98.3668 12.4499 98.8746 12.0984C99.3824 11.7433 99.9737 11.5657 100.648 11.5657C101.146 11.5657 101.559 11.6545 101.89 11.832C102.22 12.006 102.484 12.2227 102.683 12.4819C102.882 12.7411 103.037 12.9933 103.147 13.2383H103.232V8.95028H104.185V19.8594H103.258V18.3413H103.147C103.037 18.5898 102.88 18.8455 102.678 19.1083C102.475 19.3675 102.207 19.5859 101.874 19.7635C101.543 19.9411 101.13 20.0298 100.632 20.0298ZM100.744 19.1616C101.273 19.1616 101.724 19.0178 102.097 18.7301C102.47 18.4389 102.754 18.0394 102.95 17.5316C103.148 17.0202 103.248 16.4343 103.248 15.7738C103.248 15.1204 103.15 14.5433 102.955 14.0426C102.76 13.5384 102.475 13.1442 102.103 12.8601C101.73 12.5724 101.277 12.4286 100.744 12.4286C100.197 12.4286 99.7357 12.5778 99.3593 12.8761C98.9865 13.1708 98.7024 13.5703 98.507 14.0746C98.3153 14.5788 98.2194 15.1452 98.2194 15.7738C98.2194 16.4094 98.3171 16.983 98.5124 17.4943C98.7077 18.0057 98.9918 18.4123 99.3646 18.7141C99.7411 19.0124 100.201 19.1616 100.744 19.1616ZM70.1882 26.3594H69.1868C69.1122 25.9865 68.9773 25.642 68.782 25.326C68.5902 25.0064 68.3487 24.7276 68.0575 24.4897C67.7663 24.2518 67.4361 24.0671 67.0668 23.9357C66.6974 23.8043 66.2979 23.7386 65.8683 23.7386C65.1793 23.7386 64.5508 23.918 63.9826 24.2766C63.418 24.6353 62.9652 25.1626 62.6243 25.8587C62.2869 26.5511 62.1183 27.3999 62.1183 28.4048C62.1183 29.4169 62.2869 30.2692 62.6243 30.9616C62.9652 31.6541 63.418 32.1797 63.9826 32.5384C64.5508 32.8935 65.1793 33.071 65.8683 33.071C66.2979 33.071 66.6974 33.0053 67.0668 32.8739C67.4361 32.7425 67.7663 32.5597 68.0575 32.3253C68.3487 32.0874 68.5902 31.8086 68.782 31.489C68.9773 31.1694 69.1122 30.8232 69.1868 30.4503H70.1882C70.0994 30.951 69.9325 31.418 69.6875 31.8512C69.446 32.2809 69.1371 32.6573 68.7607 32.9805C68.3878 33.3036 67.9581 33.5558 67.4716 33.7369C66.9851 33.918 66.4506 34.0085 65.8683 34.0085C64.9521 34.0085 64.1388 33.7795 63.4286 33.3214C62.7184 32.8597 62.1609 32.2099 61.756 31.3718C61.3548 30.5337 61.1541 29.5447 61.1541 28.4048C61.1541 27.2649 61.3548 26.2759 61.756 25.4379C62.1609 24.5998 62.7184 23.9517 63.4286 23.4936C64.1388 23.032 64.9521 22.8011 65.8683 22.8011C66.4506 22.8011 66.9851 22.8917 67.4716 23.0728C67.9581 23.2504 68.3878 23.5025 68.7607 23.8292C69.1371 24.1523 69.446 24.5288 69.6875 24.9585C69.9325 25.3881 70.0994 25.8551 70.1882 26.3594ZM73.429 28.7457V33.8594H72.4809V22.9503H73.429V26.9613H73.5143C73.706 26.5387 74.0025 26.2013 74.4038 25.9492C74.8086 25.6971 75.32 25.571 75.9379 25.571C76.4919 25.571 76.9784 25.6847 77.3974 25.9119C77.8165 26.1392 78.1432 26.4748 78.3775 26.9187C78.6119 27.3626 78.7291 27.9094 78.7291 28.5593V33.8594H77.7756V28.6179C77.7756 27.9432 77.5874 27.4123 77.211 27.0252C76.8381 26.6346 76.3339 26.4393 75.6982 26.4393C75.2614 26.4393 74.8726 26.5316 74.5317 26.7163C74.1907 26.9009 73.9209 27.1673 73.722 27.5153C73.5267 27.8597 73.429 28.2699 73.429 28.7457ZM84.6839 34.0298C83.9204 34.0298 83.2599 33.8523 82.7023 33.4972C82.1448 33.1385 81.7134 32.6431 81.408 32.011C81.1061 31.3754 80.9552 30.6438 80.9552 29.8164C80.9552 28.9925 81.1061 28.261 81.408 27.6218C81.7134 26.979 82.1342 26.4766 82.6704 26.1143C83.2102 25.7486 83.8334 25.5657 84.5401 25.5657C84.9839 25.5657 85.4119 25.6474 85.8238 25.8107C86.2357 25.9705 86.605 26.2173 86.9317 26.5511C87.262 26.8814 87.523 27.2987 87.7148 27.8029C87.9065 28.3036 88.0024 28.8967 88.0024 29.582V30.0508H81.6104V29.2145H87.033C87.033 28.6889 86.9264 28.2166 86.7134 27.7976C86.5038 27.375 86.2109 27.0412 85.8344 26.7962C85.4616 26.5511 85.0301 26.4286 84.5401 26.4286C84.0216 26.4286 83.5653 26.5671 83.1711 26.8441C82.7769 27.1211 82.468 27.4869 82.2442 27.9414C82.0241 28.396 81.9122 28.8931 81.9087 29.4329V29.9336C81.9087 30.5835 82.0205 31.1516 82.2442 31.6381C82.4715 32.1211 82.7929 32.4957 83.2084 32.7621C83.6239 33.0284 84.1157 33.1616 84.6839 33.1616C85.071 33.1616 85.4101 33.1012 85.7013 32.9805C85.996 32.8597 86.2428 32.6982 86.4417 32.4957C86.6441 32.2898 86.7968 32.0643 86.8998 31.8192L87.8 32.1122C87.6757 32.4567 87.4715 32.7745 87.1874 33.0657C86.9069 33.3569 86.5553 33.5913 86.1327 33.7688C85.7137 33.9428 85.2308 34.0298 84.6839 34.0298ZM93.4378 34.0298C92.7063 34.0298 92.0689 33.8469 91.5256 33.4812C90.9858 33.1154 90.5667 32.6147 90.2684 31.979C89.9702 31.3434 89.821 30.619 89.821 29.8058C89.821 28.9854 89.9719 28.2557 90.2738 27.6165C90.5792 26.9773 91.0018 26.4766 91.5415 26.1143C92.0813 25.7486 92.7081 25.5657 93.4219 25.5657C93.9687 25.5657 94.4641 25.6722 94.908 25.8853C95.3519 26.0948 95.7177 26.3913 96.0053 26.7749C96.2965 27.1548 96.4794 27.5987 96.554 28.1065H95.5952C95.4957 27.6449 95.256 27.2507 94.876 26.924C94.4996 26.5937 94.0202 26.4286 93.4378 26.4286C92.9158 26.4286 92.4542 26.5707 92.0529 26.8548C91.6516 27.1353 91.3373 27.5277 91.1101 28.032C90.8863 28.5327 90.7745 29.1133 90.7745 29.7738C90.7745 30.4379 90.8846 31.0256 91.1047 31.5369C91.3249 32.0447 91.6339 32.4425 92.0316 32.7301C92.4329 33.0178 92.9016 33.1616 93.4378 33.1616C93.8001 33.1616 94.1303 33.0941 94.4286 32.9592C94.7305 32.8207 94.9826 32.6254 95.185 32.3732C95.391 32.1211 95.5295 31.821 95.6005 31.473H96.5593C96.4883 31.9666 96.3125 32.407 96.0319 32.794C95.755 33.1776 95.3945 33.4794 94.9506 33.6996C94.5103 33.9197 94.006 34.0298 93.4378 34.0298ZM99.6043 30.7699L99.5937 29.5288H99.8068L103.642 25.6776H104.84L101.053 29.4702L100.968 29.4862L99.6043 30.7699ZM98.7414 33.8594V22.9503H99.6896V33.8594H98.7414ZM103.839 33.8594L100.515 29.6566L101.197 29.0014L105.054 33.8594H103.839ZM70.1882 40.3594H69.1868C69.1122 39.9865 68.9773 39.642 68.782 39.326C68.5902 39.0064 68.3487 38.7276 68.0575 38.4897C67.7663 38.2518 67.4361 38.0671 67.0668 37.9357C66.6974 37.8043 66.2979 37.7386 65.8683 37.7386C65.1793 37.7386 64.5508 37.918 63.9826 38.2766C63.418 38.6353 62.9652 39.1626 62.6243 39.8587C62.2869 40.5511 62.1183 41.3999 62.1183 42.4048C62.1183 43.4169 62.2869 44.2692 62.6243 44.9616C62.9652 45.6541 63.418 46.1797 63.9826 46.5384C64.5508 46.8935 65.1793 47.071 65.8683 47.071C66.2979 47.071 66.6974 47.0053 67.0668 46.8739C67.4361 46.7425 67.7663 46.5597 68.0575 46.3253C68.3487 46.0874 68.5902 45.8086 68.782 45.489C68.9773 45.1694 69.1122 44.8232 69.1868 44.4503H70.1882C70.0994 44.951 69.9325 45.418 69.6875 45.8512C69.446 46.2809 69.1371 46.6573 68.7607 46.9805C68.3878 47.3036 67.9581 47.5558 67.4716 47.7369C66.9851 47.918 66.4506 48.0085 65.8683 48.0085C64.9521 48.0085 64.1388 47.7795 63.4286 47.3214C62.7184 46.8597 62.1609 46.2099 61.756 45.3718C61.3548 44.5337 61.1541 43.5447 61.1541 42.4048C61.1541 41.2649 61.3548 40.2759 61.756 39.4379C62.1609 38.5998 62.7184 37.9517 63.4286 37.4936C64.1388 37.032 64.9521 36.8011 65.8683 36.8011C66.4506 36.8011 66.9851 36.8917 67.4716 37.0728C67.9581 37.2504 68.3878 37.5025 68.7607 37.8292C69.1371 38.1523 69.446 38.5288 69.6875 38.9585C69.9325 39.3881 70.0994 39.8551 70.1882 40.3594ZM74.766 48.0458C74.2724 48.0458 73.8214 47.9499 73.4131 47.7582C73.0047 47.5629 72.6797 47.2823 72.4383 46.9165C72.1968 46.5472 72.076 46.0998 72.076 45.5742C72.076 45.1694 72.1524 44.8285 72.3051 44.5515C72.4578 44.2745 72.6744 44.0472 72.955 43.8697C73.2355 43.6921 73.5675 43.5518 73.951 43.4489C74.3346 43.3459 74.7572 43.266 75.2188 43.2092C75.6769 43.1523 76.064 43.1026 76.38 43.06C76.6996 43.0174 76.9429 42.9499 77.1098 42.8576C77.2767 42.7653 77.3601 42.6161 77.3601 42.4102V42.2184C77.3601 41.6609 77.1932 41.2223 76.8594 40.9027C76.5292 40.5795 76.0533 40.418 75.4319 40.418C74.8424 40.418 74.3612 40.5476 73.9883 40.8068C73.619 41.0661 73.3598 41.3714 73.2106 41.723L72.3104 41.3981C72.4951 40.9506 72.7508 40.5937 73.0775 40.3274C73.4042 40.0575 73.7699 39.864 74.1748 39.7468C74.5796 39.6261 74.9898 39.5657 75.4052 39.5657C75.7177 39.5657 76.0427 39.6065 76.38 39.6882C76.7209 39.7699 77.037 39.9119 77.3282 40.1143C77.6194 40.3132 77.8555 40.592 78.0366 40.9506C78.2177 41.3058 78.3083 41.7567 78.3083 42.3036V47.8594H77.3601V46.565H77.3015C77.1879 46.8065 77.0192 47.0408 76.7955 47.2681C76.5718 47.4954 76.2912 47.6818 75.9539 47.8274C75.6165 47.973 75.2206 48.0458 74.766 48.0458ZM74.8939 47.1776C75.3981 47.1776 75.8349 47.0657 76.2042 46.842C76.5736 46.6183 76.8577 46.3217 77.0565 45.9524C77.2589 45.5795 77.3601 45.1694 77.3601 44.7219V43.5394C77.2891 43.6069 77.1702 43.6673 77.0032 43.7205C76.8399 43.7738 76.6499 43.8217 76.4333 43.8643C76.2202 43.9034 76.0072 43.9371 75.7941 43.9656C75.581 43.994 75.3893 44.0188 75.2188 44.0401C74.7572 44.0969 74.363 44.1857 74.0363 44.3065C73.7096 44.4272 73.4592 44.5941 73.2852 44.8072C73.1112 45.0167 73.0242 45.2866 73.0242 45.6168C73.0242 46.114 73.2018 46.4993 73.5569 46.7727C73.912 47.0426 74.3577 47.1776 74.8939 47.1776ZM80.9805 50.9276V39.6776H81.902V41.2383H82.0139C82.1275 40.9933 82.2838 40.7429 82.4826 40.4872C82.6815 40.228 82.9443 40.0096 83.271 39.832C83.6012 39.6545 84.0167 39.5657 84.5174 39.5657C85.1921 39.5657 85.7816 39.7433 86.2859 40.0984C86.7937 40.4499 87.1879 40.9435 87.4684 41.5792C87.7525 42.2113 87.8945 42.9482 87.8945 43.7898C87.8945 44.6349 87.7525 45.3754 87.4684 46.011C87.1879 46.6467 86.7937 47.142 86.2859 47.4972C85.7816 47.8523 85.1957 48.0298 84.5281 48.0298C84.0345 48.0298 83.6208 47.9411 83.2869 47.7635C82.9567 47.5859 82.6886 47.3675 82.4826 47.1083C82.2802 46.8455 82.124 46.5898 82.0139 46.3413H81.9286V50.9276H80.9805ZM81.918 43.7738C81.918 44.4343 82.0156 45.0202 82.211 45.5316C82.4098 46.0394 82.6939 46.4389 83.0632 46.7301C83.4361 47.0178 83.8871 47.1616 84.4162 47.1616C84.9595 47.1616 85.4176 47.0124 85.7905 46.7141C86.1669 46.4123 86.4528 46.0057 86.6481 45.4943C86.847 44.983 86.9464 44.4094 86.9464 43.7738C86.9464 43.1452 86.8487 42.5788 86.6534 42.0746C86.4617 41.5703 86.1776 41.1708 85.8012 40.8761C85.4247 40.5778 84.9631 40.4286 84.4162 40.4286C83.8835 40.4286 83.4308 40.5724 83.0579 40.8601C82.685 41.1442 82.4009 41.5384 82.2056 42.0426C82.0139 42.5433 81.918 43.1204 81.918 43.7738ZM90.1353 47.8594V39.6776H91.0888V47.8594H90.1353ZM90.62 38.2713C90.4247 38.2713 90.2578 38.2056 90.1193 38.0742C89.9808 37.9393 89.9116 37.7777 89.9116 37.5895C89.9116 37.4013 89.9808 37.2415 90.1193 37.1101C90.2578 36.9751 90.4247 36.9077 90.62 36.9077C90.8153 36.9077 90.9822 36.9751 91.1207 37.1101C91.2592 37.2415 91.3285 37.4013 91.3285 37.5895C91.3285 37.7777 91.2592 37.9393 91.1207 38.0742C90.9822 38.2056 90.8153 38.2713 90.62 38.2713ZM96.969 39.6776V40.5032H93.0645V39.6776H96.969ZM94.2843 37.7173H95.2378V45.7234C95.2378 46.0643 95.2964 46.3324 95.4136 46.5277C95.5308 46.7195 95.6835 46.8562 95.8717 46.9379C96.0599 47.016 96.2605 47.055 96.4736 47.055C96.5979 47.055 96.7044 47.0479 96.7932 47.0337C96.882 47.016 96.9601 46.9982 97.0276 46.9805L97.23 47.8381C97.1376 47.8736 97.024 47.9055 96.8891 47.9339C96.7541 47.9659 96.5872 47.9819 96.3884 47.9819C96.0403 47.9819 95.7048 47.9055 95.3816 47.7528C95.062 47.6001 94.7992 47.3729 94.5933 47.071C94.3873 46.7692 94.2843 46.3945 94.2843 45.9471V37.7173ZM101.557 48.0458C101.064 48.0458 100.613 47.9499 100.204 47.7582C99.7961 47.5629 99.4711 47.2823 99.2297 46.9165C98.9882 46.5472 98.8675 46.0998 98.8675 45.5742C98.8675 45.1694 98.9438 44.8285 99.0965 44.5515C99.2492 44.2745 99.4658 44.0472 99.7464 43.8697C100.027 43.6921 100.359 43.5518 100.742 43.4489C101.126 43.3459 101.549 43.266 102.01 43.2092C102.468 43.1523 102.855 43.1026 103.171 43.06C103.491 43.0174 103.734 42.9499 103.901 42.8576C104.068 42.7653 104.152 42.6161 104.152 42.4102V42.2184C104.152 41.6609 103.985 41.2223 103.651 40.9027C103.321 40.5795 102.845 40.418 102.223 40.418C101.634 40.418 101.153 40.5476 100.78 40.8068C100.41 41.0661 100.151 41.3714 100.002 41.723L99.1018 41.3981C99.2865 40.9506 99.5422 40.5937 99.8689 40.3274C100.196 40.0575 100.561 39.864 100.966 39.7468C101.371 39.6261 101.781 39.5657 102.197 39.5657C102.509 39.5657 102.834 39.6065 103.171 39.6882C103.512 39.7699 103.828 39.9119 104.12 40.1143C104.411 40.3132 104.647 40.592 104.828 40.9506C105.009 41.3058 105.1 41.7567 105.1 42.3036V47.8594H104.152V46.565H104.093C103.979 46.8065 103.811 47.0408 103.587 47.2681C103.363 47.4954 103.083 47.6818 102.745 47.8274C102.408 47.973 102.012 48.0458 101.557 48.0458ZM101.685 47.1776C102.19 47.1776 102.626 47.0657 102.996 46.842C103.365 46.6183 103.649 46.3217 103.848 45.9524C104.05 45.5795 104.152 45.1694 104.152 44.7219V43.5394C104.081 43.6069 103.962 43.6673 103.795 43.7205C103.631 43.7738 103.441 43.8217 103.225 43.8643C103.012 43.9034 102.799 43.9371 102.585 43.9656C102.372 43.994 102.181 44.0188 102.01 44.0401C101.549 44.0969 101.154 44.1857 100.828 44.3065C100.501 44.4272 100.251 44.5941 100.077 44.8072C99.9026 45.0167 99.8156 45.2866 99.8156 45.6168C99.8156 46.114 99.9932 46.4993 100.348 46.7727C100.703 47.0426 101.149 47.1776 101.685 47.1776ZM108.72 36.9503V47.8594H107.772V36.9503H108.72Z" fill="black"/>
<defs>
<linearGradient id="paint0_linear_444_28" x1="34.1953" y1="0.859375" x2="34.1953" y2="42.8594" gradientUnits="userSpaceOnUse">
<stop stop-color="#EF2A5F"/>
<stop offset="0.435" stop-color="#F58357"/>
<stop offset="0.95" stop-color="#FFBB37"/>
</linearGradient>
<linearGradient id="paint1_linear_444_28" x1="47.6953" y1="21.8594" x2="47.6953" y2="53.8594" gradientUnits="userSpaceOnUse">
<stop stop-color="#EF2A5F"/>
<stop offset="0.435" stop-color="#F58357"/>
<stop offset="0.95" stop-color="#FFBB37"/>
</linearGradient>
<linearGradient id="paint2_linear_444_28" x1="6.19531" y1="21.8594" x2="6.19531" y2="51.8594" gradientUnits="userSpaceOnUse">
<stop stop-color="#EF2A5F"/>
<stop offset="0.435" stop-color="#F58357"/>
<stop offset="0.95" stop-color="#FFBB37"/>
</linearGradient>
<linearGradient id="paint3_linear_444_28" x1="20.2598" y1="10.8594" x2="20.2598" y2="57.8594" gradientUnits="userSpaceOnUse">
<stop stop-color="#EF2A5F"/>
<stop offset="0.435" stop-color="#F58357"/>
<stop offset="0.95" stop-color="#FFBB37"/>
</linearGradient>
</defs>
</svg>
